# xmcd
#
# Track frame offsets:
#	150
#	17333
#	36296
#	58985
#	82385
#	106470
#	127662
#	158021
#	175931
#	192595
#	215025
#
# Disc length: 3243 seconds
#
# Revision: 1
# Processed by: cddbd v1.5.2PL0 Copyright (c) Steve Scherf et al.
# Submitted via: audiograbber 1.83.01
#
DISCID=990ca90b
DTITLE=Robben Ford - Blue Moon
DYEAR=2002
DGENRE=Blues
TTITLE0=Up The Line
TTITLE1=Hard To Please
TTITLE2=Don't Deny Your Love
TTITLE3=Make Me Your Only One
TTITLE4=Indianola
TTITLE5=My Everything
TTITLE6=The Way You Treated Me (You're
TTITLE7=Sometime Love
TTITLE8=Good To Love
TTITLE9=Something For The Pain
TTITLE10=It Don't Make Sense (You Can't
EXTD=
EXTT0=
EXTT1=
EXTT2=
EXTT3=
EXTT4=
EXTT5=
EXTT6=
EXTT7=
EXTT8=
EXTT9=
EXTT10=
PLAYORDER=
